<?xml version="1.0" standalone="no"?>
<svg version="1.1" style="overflow: hidden; height: 334.5px; width: 334.5px; background-color: rgb(226, 62, 11);" width="418" height="334.5" xmlns="http://www.w3.org/2000/svg"><defs></defs><g style="transform: translate(0px) rotate(360deg); transform-origin: 41.8125px 41.8125px 0px; background-color: rgb(0, 0, 0);"><path d="M 0 0 L 83.625 0 L 83.625 83.625 L 0 83.625Z" fill="#e23e0b"></path><path d="M 83.625 41.8125 A 41.8125 41.8125 0 1 0 83.625 41.8208625Z" fill="#251819"></path><path d="M 27.875 13.937500000000002 A 13.9375 13.9375 0 0 1 55.75 13.937499999999995 L 41.8125 13.9375Z" fill="#251819"></path></g><g style="transform: translate(0px, 83.625px) rotate(0deg); transform-origin: 41.8125px 41.8125px 0px; background-color: rgb(0, 0, 0);"><path d="M 0 0 L 83.625 0 L 83.625 83.625 L 0 83.625Z" fill="#e23e0b"></path><path d="M 41.8125 41.8125 A 20.90625 20.90625 0 0 1 41.8125 -2.3767654511175353e-15 L 41.8125 20.90625Z" fill="#f21f26"></path><path d="M 0 41.8125 A 20.90625 20.90625 0 0 1 2.5602772144674356e-15 83.625 L 0 62.71875000000001Z" fill="#f19601"></path><path d="M 83.625 41.8125 A 20.90625 20.90625 0 0 1 83.625 -2.3767654511175353e-15 L 83.625 20.90625Z" fill="#251819"></path><path d="M 41.8125 41.8125 A 20.90625 20.90625 0 0 1 41.81250000000001 83.625 L 41.8125 62.71875000000001Z" fill="#f19601"></path></g><g style="transform: translate(0px, 167.25px) rotate(0deg); transform-origin: 41.8125px 41.8125px 0px; background-color: rgb(0, 0, 0);"><path d="M 0 0 L 83.625 0 L 83.625 83.625 L 0 83.625Z" fill="#e23e0b"></path><path d="M 83.625 -4.7535309022350705e-15 L 83.625 41.8125 A 41.8125 41.8125 0 1 1 41.8125 0 L 83.625 -4.7535309022350705e-15Z" fill="#f19601"></path><path d="M 41.8125 41.8125 L 41.8125 62.71875000000001 A 20.90625 20.90625 0 1 1 20.90625 41.8125 L 41.8125 41.8125Z" fill="#f19601"></path></g><g style="transform: translate(0px, 250.875px) rotate(180deg); transform-origin: 41.8125px 41.8125px 0px; background-color: rgb(0, 0, 0);"><path d="M 0 0 L 83.625 0 L 83.625 83.625 L 0 83.625Z" fill="#e23e0b"></path><path d="M 41.8125 41.8125 L 20.906250000000004 41.8125 A 20.90625 20.90625 0 1 1 41.8125 20.90625 L 41.8125 41.8125Z" fill="#251819"></path><path d="M 4.7535309022350705e-15 83.625 L 0 62.71875000000001 A 20.90625 20.90625 0 1 1 20.906250000000007 83.625 L 4.7535309022350705e-15 83.625Z" fill="#f21f26"></path><path d="M 83.625 -2.3767654511175353e-15 L 83.625 20.90625 A 20.90625 20.90625 0 1 1 62.71875000000001 0 L 83.625 -2.3767654511175353e-15Z" fill="#f19601"></path><path d="M 41.8125 41.8125 L 62.71875000000001 41.8125 A 20.90625 20.90625 0 1 1 41.8125 62.71875000000001 L 41.8125 41.8125Z" fill="#f21f26"></path></g><g style="transform: translate(83.625px) rotate(90deg); transform-origin: 41.8125px 41.8125px 0px; background-color: rgb(0, 0, 0);"><path d="M 0 0 L 83.625 0 L 83.625 83.625 L 0 83.625Z" fill="#e23e0b"></path><path d="M 0 0 L 20.90625 0 A 20.90625 20.90625 0 0 1 20.90625 41.8125 L 0 41.8125Z" fill="#f21f26"></path><path d="M 4.7535309022350705e-15 83.625 L 0 62.71875000000001 A 20.90625 20.90625 0 0 1 41.8125 62.71875000000001 L 41.81250000000001 83.625Z" fill="#f19601"></path><path d="M 41.8125 0 L 62.71875000000001 0 A 20.90625 20.90625 0 0 1 62.71875000000001 41.8125 L 41.8125 41.8125Z" fill="#f19601"></path><path d="M 41.81250000000001 83.625 L 41.8125 62.71875000000001 A 20.90625 20.90625 0 0 1 83.625 62.71875000000001 L 83.625 83.625Z" fill="#251819"></path></g><g style="transform: translate(83.625px, 83.625px) rotate(0deg); transform-origin: 41.8125px 41.8125px 0px; background-color: rgb(0, 0, 0);"><path d="M 0 0 L 83.625 0 L 83.625 83.625 L 0 83.625Z" fill="#e23e0b"></path><path d="M 41.8125 -2.3767654511175353e-15 L 41.8125 41.8125 L 20.906250000000004 41.8125 L 0 20.906250000000004 L 20.90625 0Z" fill="#f21f26"></path><path d="M 4.7535309022350705e-15 83.625 L -4.7535309022350705e-15 41.81250000000001 L 20.906249999999996 41.8125 L 41.8125 62.71875000000001 L 20.906250000000007 83.625Z" fill="#251819"></path><path d="M 83.625 -2.3767654511175353e-15 L 83.625 41.8125 L 62.71875000000001 41.8125 L 41.8125 20.906250000000004 L 62.71875000000001 0Z" fill="#251819"></path><path d="M 41.81250000000001 83.625 L 41.8125 41.81250000000001 L 62.71875000000001 41.8125 L 83.625 62.71875000000001 L 62.71875000000001 83.625Z" fill="#251819"></path></g><g style="transform: translate(83.625px, 167.25px) rotate(180deg); transform-origin: 41.8125px 41.8125px 0px; background-color: rgb(0, 0, 0);"><path d="M 0 0 L 83.625 0 L 83.625 83.625 L 0 83.625Z" fill="#e23e0b"></path><path d="M 41.8125 41.8125 A 20.90625 20.90625 0 0 1 41.8125 -2.3767654511175353e-15 L 41.8125 20.90625Z" fill="#251819"></path><path d="M 41.8125 83.625 A 20.90625 20.90625 0 0 1 41.8125 41.8125 L 41.8125 62.71875000000001Z" fill="#251819"></path><path d="M 83.625 -2.3767654511175353e-15 A 20.90625 20.90625 0 0 1 41.8125 4.7535309022350705e-15 L 62.71875000000001 0Z" fill="#f19601"></path><path d="M 41.81250000000001 83.625 A 20.90625 20.90625 0 0 1 83.625 83.625 L 62.71875000000001 83.625Z" fill="#f21f26"></path></g><g style="transform: translate(83.625px, 250.875px) rotate(90deg); transform-origin: 41.8125px 41.8125px 0px; background-color: rgb(0, 0, 0);"><path d="M 0 0 L 83.625 0 L 83.625 83.625 L 0 83.625Z" fill="#e23e0b"></path><path d="M 83.625 41.8125 A 41.8125 41.8125 0 0 1 41.812500000000014 83.625 L 83.625 83.625Z" fill="#f19601"></path><path d="M 41.8125 83.625 L 2.3767654511175353e-15 83.625 L 0 62.71875000000001 L 20.90625 62.71875000000001 L 20.90625 41.8125 L 41.8125 41.8125Z" fill="#251819"></path><path d="M 83.625 41.8125 L 41.8125 41.8125 L 41.8125 20.906250000000004 L 62.71875000000001 20.90625 L 62.71875000000001 0 L 83.625 -2.3767654511175353e-15Z" fill="#f21f26"></path><path d="M 4.7535309022350705e-15 41.81250000000001 A 41.8125 41.8125 0 0 1 41.81249999999999 -4.7535309022350705e-15 L -4.7535309022350705e-15 4.7535309022350705e-15Z" fill="#251819"></path></g><g style="transform: translate(167.25px) rotate(180deg); transform-origin: 41.8125px 41.8125px 0px; background-color: rgb(0, 0, 0);"><path d="M 0 0 L 83.625 0 L 83.625 83.625 L 0 83.625Z" fill="#e23e0b"></path><path d="M 0 0 L 20.90625 0 A 20.90625 20.90625 0 1 1 0 20.90625 L 0 0Z" fill="#251819"></path><path d="M 20.90625 41.8125 L 41.8125 41.8125 L 41.8125 83.625 L 20.90625 83.625Z" fill="#f21f26"></path><path d="M 83.625 83.625 L 62.71875000000001 83.625 A 20.90625 20.90625 0 1 1 83.625 62.71875000000001 L 83.625 83.625Z" fill="#251819"></path><path d="M 62.71875000000001 41.8125 L 41.8125 41.8125 L 41.8125 2.3767654511175353e-15 L 62.71875000000001 0Z" fill="#f21f26"></path></g><g style="transform: translate(167.25px, 83.625px) rotate(360deg); transform-origin: 41.8125px 41.8125px 0px; background-color: rgb(0, 0, 0);"><path d="M 0 0 L 83.625 0 L 83.625 83.625 L 0 83.625Z" fill="#e23e0b"></path><path d="M 41.8125 41.8125 L 0 41.81250000000001 L 41.8125 0 L 83.625 41.8125Z" fill="#f19601"></path><path d="M 41.8125 69.6875 L 27.875 69.6875 L 41.8125 55.75 L 55.75 69.6875Z" fill="#251819"></path></g><g style="transform: translate(167.25px, 167.25px) rotate(180deg); transform-origin: 41.8125px 41.8125px 0px; background-color: rgb(0, 0, 0);"><path d="M 0 0 L 83.625 0 L 83.625 83.625 L 0 83.625Z" fill="#e23e0b"></path><path d="M 20.906250000000004 41.8125 A 20.90625 20.90625 0 0 1 20.906249999999996 0 L 20.90625 20.90625Z" fill="#251819"></path><path d="M 20.90625 41.8125 A 20.90625 20.90625 0 0 1 20.906250000000004 83.625 L 20.90625 62.71875000000001Z" fill="#f21f26"></path><path d="M 62.71875000000001 41.8125 A 20.90625 20.90625 0 0 1 62.71875000000001 0 L 62.71875000000001 20.90625Z" fill="#251819"></path><path d="M 62.71875000000001 41.8125 A 20.90625 20.90625 0 0 1 62.71875000000001 83.625 L 62.71875000000001 62.71875000000001Z" fill="#f19601"></path></g><g style="transform: translate(167.25px, 250.875px) rotate(90deg); transform-origin: 41.8125px 41.8125px 0px; background-color: rgb(0, 0, 0);"><path d="M 0 0 L 83.625 0 L 83.625 83.625 L 0 83.625Z" fill="#e23e0b"></path><path d="M 20.906250000000004 41.8125 L 2.3767654511175353e-15 41.8125 L 20.90625 0 L 41.8125 -2.3767654511175353e-15Z" fill="#f19601"></path><path d="M 20.90625 41.8125 L 41.8125 41.8125 L 20.90625 83.625 L 0 83.625Z" fill="#251819"></path><path d="M 62.71875000000001 0 L 83.625 0 L 62.71875000000001 41.8125 L 41.8125 41.8125Z" fill="#251819"></path><path d="M 62.71875000000001 41.8125 L 83.625 41.8125 L 62.71875000000001 83.625 L 41.8125 83.625Z" fill="#251819"></path></g><g style="transform: translate(250.875px) rotate(90deg); transform-origin: 41.8125px 41.8125px 0px; background-color: rgb(0, 0, 0);"><path d="M 0 0 L 83.625 0 L 83.625 83.625 L 0 83.625Z" fill="#e23e0b"></path><path d="M 83.625 62.71875000000001 A 20.90625 20.90625 0 0 1 41.8125 62.71875000000001 L 62.71875000000001 62.71875000000001Z" fill="#251819"></path><path d="M 0 20.906250000000007 A 20.90625 20.90625 0 0 1 41.8125 20.906249999999993 L 20.90625 20.90625Z" fill="#f19601"></path><path d="M 0 62.71875000000001 A 20.90625 20.90625 0 0 1 41.8125 62.71874999999999 L 20.90625 62.71875000000001Z" fill="#f19601"></path><path d="M 41.8125 20.906250000000007 A 20.90625 20.90625 0 0 1 83.625 20.906249999999993 L 62.71875000000001 20.90625Z" fill="#f19601"></path></g><g style="transform: translate(250.875px, 83.625px) rotate(360deg); transform-origin: 41.8125px 41.8125px 0px; background-color: rgb(0, 0, 0);"><path d="M 0 0 L 83.625 0 L 83.625 83.625 L 0 83.625Z" fill="#e23e0b"></path><path d="M 4.7535309022350705e-15 41.81250000000001 L -4.7535309022350705e-15 4.7535309022350705e-15 L 20.906249999999996 0 L 20.90625 20.90625 L 41.8125 20.906249999999996 L 41.81250000000001 41.8125Z" fill="#251819"></path><path d="M 41.8125 83.625 L 2.3767654511175353e-15 83.625 L 0 62.71875000000001 L 20.90625 62.71875000000001 L 20.90625 41.8125 L 41.8125 41.8125Z" fill="#f21f26"></path><path d="M 83.625 41.8125 L 41.8125 41.8125 L 41.8125 20.906250000000004 L 62.71875000000001 20.90625 L 62.71875000000001 0 L 83.625 -2.3767654511175353e-15Z" fill="#f21f26"></path><path d="M 83.625 41.8125 L 83.625 83.625 L 62.71875000000001 83.625 L 62.71875000000001 62.71875000000001 L 41.8125 62.71875000000001 L 41.8125 41.8125Z" fill="#251819"></path></g><g style="transform: translate(250.875px, 167.25px) rotate(360deg); transform-origin: 41.8125px 41.8125px 0px; background-color: rgb(0, 0, 0);"><path d="M 0 0 L 83.625 0 L 83.625 83.625 L 0 83.625Z" fill="#e23e0b"></path><path d="M 83.625 -4.7535309022350705e-15 L 83.625 41.8125 L 4.7535309022350705e-15 83.625 L -4.7535309022350705e-15 4.7535309022350705e-15Z" fill="#251819"></path><path d="M 55.75 0 L 55.75 13.9375 L 27.875 27.875 L 27.875 0Z" fill="#251819"></path></g><g style="transform: translate(250.875px, 250.875px) rotate(180deg); transform-origin: 41.8125px 41.8125px 0px; background-color: rgb(0, 0, 0);"><path d="M 0 0 L 83.625 0 L 83.625 83.625 L 0 83.625Z" fill="#e23e0b"></path><path d="M 4.7535309022350705e-15 41.81250000000001 A 41.8125 41.8125 0 0 1 41.81249999999999 -4.7535309022350705e-15 L -4.7535309022350705e-15 4.7535309022350705e-15Z" fill="#f21f26"></path><path d="M 0 41.8125 A 41.8125 41.8125 0 0 1 41.8125 83.625 L 41.8125 41.8125Z" fill="#f19601"></path><path d="M 41.8125 0 A 41.8125 41.8125 0 0 1 83.625 41.8125 L 83.625 0Z" fill="#251819"></path><path d="M 41.8125 41.8125 A 41.8125 41.8125 0 0 1 83.625 83.625 L 83.625 41.8125Z" fill="#f19601"></path></g><g id="two-3412" transform="matrix(1 0 0 1 0 0)" opacity="1"></g></svg>