<?xml version="1.0" standalone="no"?>
<svg version="1.1" style="overflow: hidden; height: 334.5px; width: 334.5px; background-color: rgb(238, 218, 107);" width="418" height="334.5" xmlns="http://www.w3.org/2000/svg"><defs></defs><g style="transform: translate(0px) rotate(180deg); transform-origin: 55.75px 55.75px 0px; background-color: rgb(0, 0, 0);"><path d="M 0 0 L 111.5 0 L 111.5 111.5 L 0 111.5Z" fill="#eeda6b"></path><path d="M 111.50000000000001 111.49999999999999 L 0 55.750000000000014 L 111.49999999999999 -1.2676082405960188e-14Z" fill="#ff8006"></path><path d="M 37.16666666666667 74.33333333333331 L 3.169020601490047e-15 74.33333333333334 A 18.583333333333332 18.583333333333332 0 0 0 -3.169020601490047e-15 37.16666666666667 L 37.16666666666666 37.16666666666666Z" fill="#be0001"></path></g><g style="transform: translate(0px, 111.5px) rotate(180deg); transform-origin: 55.75px 55.75px 0px; background-color: rgb(0, 0, 0);"><path d="M 0 0 L 111.5 0 L 111.5 111.5 L 0 111.5Z" fill="#eeda6b"></path><path d="M 0 0 A 111.5 111.5 0 0 1 111.5 111.49999999999999 L 0 111.5Z" fill="#2f003f"></path><path d="M 1.2676082405960188e-14 111.50000000000001 A 111.5 111.5 0 0 1 111.49999999999997 -1.2676082405960188e-14 L 111.50000000000001 111.49999999999999Z" fill="#be0001"></path></g><g style="transform: translate(0px, 223px) rotate(0deg); transform-origin: 55.75px 55.75px 0px; background-color: rgb(0, 0, 0);"><path d="M 0 0 L 111.5 0 L 111.5 111.5 L 0 111.5Z" fill="#eeda6b"></path><path d="M 6.338041202980094e-15 55.75000000000001 L 0 27.875000000000007 A 27.875 27.875 0 0 1 55.75 27.874999999999993 L 55.75000000000001 55.74999999999999Z" fill="#2f003f"></path><path d="M 6.338041202980094e-15 111.5 L 0 83.625 A 27.875 27.875 0 0 1 55.75 83.625 L 55.75000000000001 111.5Z" fill="#be0001"></path><path d="M 55.75000000000001 55.75000000000001 L 55.75 27.875000000000007 A 27.875 27.875 0 0 1 111.5 27.874999999999993 L 111.5 55.74999999999999Z" fill="#be0001"></path><path d="M 111.5 55.75 L 111.5 83.625 A 27.875 27.875 0 0 1 55.75 83.625 L 55.75 55.75Z" fill="#2f003f"></path></g><g style="transform: translate(111.5px) rotate(180deg); transform-origin: 55.75px 55.75px 0px; background-color: rgb(0, 0, 0);"><path d="M 0 0 L 111.5 0 L 111.5 111.5 L 0 111.5Z" fill="#eeda6b"></path><path d="M 55.75 55.75 L 111.5 55.75 A 27.875 27.875 0 0 0 111.5 111.5 L 55.75 111.5Z" fill="#be0001"></path><path d="M 55.75 -3.169020601490047e-15 L 55.75 27.874999999999996 L 3.169020601490047e-15 55.75 L -3.169020601490047e-15 3.169020601490047e-15Z" fill="#be0001"></path><path d="M 111.5 -3.169020601490047e-15 L 111.5 27.874999999999996 L 55.75 55.75 L 55.75 3.169020601490047e-15Z" fill="#ff8006"></path><path d="M 55.75 111.5 L 3.169020601490047e-15 111.5 A 27.875 27.875 0 0 0 -3.169020601490047e-15 55.75 L 55.75 55.75Z" fill="#2f003f"></path></g><g style="transform: translate(111.5px, 111.5px) rotate(360deg); transform-origin: 55.75px 55.75px 0px; background-color: rgb(0, 0, 0);"><path d="M 0 0 L 111.5 0 L 111.5 111.5 L 0 111.5Z" fill="#eeda6b"></path><path d="M 27.875 0 A 27.875 27.875 0 1 1 0 27.875000000000007 L 27.875 27.875Z" fill="#2f003f"></path><path d="M 0 83.625 A 27.875 27.875 0 1 1 27.875000000000014 111.5 L 27.875 83.625Z" fill="#2f003f"></path><path d="M 83.625 55.75 A 27.875 27.875 0 1 1 111.5 27.87499999999999 L 83.625 27.875Z" fill="#2f003f"></path><path d="M 111.5 83.625 A 27.875 27.875 0 1 1 83.62499999999999 55.75 L 83.625 83.625Z" fill="#ff8006"></path></g><g style="transform: translate(111.5px, 223px) rotate(0deg); transform-origin: 55.75px 55.75px 0px; background-color: rgb(0, 0, 0);"><path d="M 0 0 L 111.5 0 L 111.5 111.5 L 0 111.5Z" fill="#eeda6b"></path><path d="M 111.5 111.5 L 6.338041202980094e-15 111.5 L 0 55.75000000000001 L 55.75 55.75 L 55.74999999999999 0 L 111.5 -6.338041202980094e-15Z" fill="#be0001"></path><path d="M 55.75 55.75 L 83.625 55.75 L 111.5 83.625 L 111.5 111.5 L 83.625 111.5 L 55.75 83.625Z" fill="#2f003f"></path></g><g style="transform: translate(223px) rotate(270deg); transform-origin: 55.75px 55.75px 0px; background-color: rgb(0, 0, 0);"><path d="M 0 0 L 111.5 0 L 111.5 111.5 L 0 111.5Z" fill="#eeda6b"></path><path d="M 0 0 L 111.5 0 L 111.5 111.5 L 0 111.5Z" fill="#be0001"></path><path d="M 74.33333333333334 37.16666666666666 L 55.75 18.583333333333332 L 37.16666666666667 37.16666666666667 L 37.166666666666664 18.583333333333336 L 55.74999999999999 0 L 74.33333333333333 18.58333333333333Z" fill="#be0001"></path></g><g style="transform: translate(223px, 111.5px) rotate(90deg); transform-origin: 55.75px 55.75px 0px; background-color: rgb(0, 0, 0);"><path d="M 0 0 L 111.5 0 L 111.5 111.5 L 0 111.5Z" fill="#eeda6b"></path><path d="M 27.875 0 L 55.75 0 L 55.75 55.75 L 27.875 55.75Z" fill="#ff8006"></path><path d="M 27.875000000000004 111.5 L 3.169020601490047e-15 111.5 L -3.169020601490047e-15 55.75 L 27.874999999999996 55.75Z" fill="#ff8006"></path><path d="M 83.625 0 L 111.5 0 L 111.5 55.75 L 83.625 55.75Z" fill="#be0001"></path><path d="M 83.625 111.5 L 55.75 111.5 L 55.75 55.75 L 83.625 55.75Z" fill="#be0001"></path></g><g style="transform: translate(223px, 223px) rotate(270deg); transform-origin: 55.75px 55.75px 0px; background-color: rgb(0, 0, 0);"><path d="M 0 0 L 111.5 0 L 111.5 111.5 L 0 111.5Z" fill="#eeda6b"></path><path d="M 55.75 -3.169020601490047e-15 L 27.875 27.875 L 55.75 55.75 L 27.875000000000004 55.75 L 0 27.875000000000004 L 27.874999999999996 0Z" fill="#be0001"></path><path d="M 0 55.75 L 27.875 83.625 L 55.75 55.75 L 55.75 83.625 L 27.875 111.5 L 0 83.625Z" fill="#2f003f"></path><path d="M 111.5 -3.169020601490047e-15 L 83.625 27.875 L 111.5 55.75 L 83.625 55.75 L 55.75 27.875000000000004 L 83.625 0Z" fill="#be0001"></path><path d="M 55.75 55.75 L 83.625 83.625 L 111.5 55.75 L 111.5 83.625 L 83.625 111.5 L 55.75 83.625Z" fill="#be0001"></path></g><g id="two-3043" transform="matrix(1 0 0 1 0 0)" opacity="1"></g></svg>