<?xml version="1.0" standalone="no"?>
<svg version="1.1" style="overflow: hidden; height: 334.5px; width: 382.286px; background-color: rgb(31, 49, 106);" width="418" height="334.5" xmlns="http://www.w3.org/2000/svg"><defs></defs><g style="transform: translate(0px) rotate(360deg); transform-origin: 23.8929px 23.8929px 0px; background-color: rgb(0, 0, 0);"><path d="M 0 0 L 47.785714285714285 0 L 47.785714285714285 47.785714285714285 L 0 47.785714285714285Z" fill="#1f316a"></path><path d="M 0 0 L 23.892857142857142 23.892857142857142 L 0 23.892857142857142Z" fill="#f6aa3d"></path><path d="M 2.7163033727057544e-15 47.785714285714285 L 23.89285714285714 23.89285714285714 L 23.892857142857146 47.785714285714285Z" fill="#e0dc8b"></path><path d="M 23.892857142857142 0 L 47.785714285714285 23.892857142857142 L 23.892857142857142 23.892857142857142Z" fill="#ed4c57"></path><path d="M 23.892857142857142 23.892857142857142 L 47.785714285714285 47.785714285714285 L 23.892857142857142 47.785714285714285Z" fill="#ed4c57"></path></g><g style="transform: translate(0px, 47.7857px) rotate(0deg); transform-origin: 23.8929px 23.8929px 0px; background-color: rgb(0, 0, 0);"><path d="M 0 0 L 47.785714285714285 0 L 47.785714285714285 47.785714285714285 L 0 47.785714285714285Z" fill="#1f316a"></path><path d="M 23.892857142857142 11.946428571428571 A 11.946428571428571 11.946428571428571 0 1 0 23.892857142857142 11.948817857142856Z" fill="#f6aa3d"></path><path d="M 23.892857142857142 35.839285714285715 A 11.946428571428571 11.946428571428571 0 1 0 23.892857142857142 35.841674999999995Z" fill="#ed4c57"></path><path d="M 47.785714285714285 23.892857142857142 A 23.892857142857142 23.892857142857142 0 0 1 23.892857142857142 4.0744550590586314e-15 L 23.892857142857142 23.892857142857142Z" fill="#e0dc8b"></path><path d="M 23.892857142857146 47.785714285714285 A 23.892857142857142 23.892857142857142 0 0 1 47.78571428571428 23.89285714285714 L 23.89285714285714 23.892857142857146Z" fill="#ed4c57"></path></g><g style="transform: translate(0px, 95.5714px) rotate(360deg); transform-origin: 23.8929px 23.8929px 0px; background-color: rgb(0, 0, 0);"><path d="M 0 0 L 47.785714285714285 0 L 47.785714285714285 47.785714285714285 L 0 47.785714285714285Z" fill="#1f316a"></path><path d="M 0 0 L 23.892857142857142 0 L 23.892857142857142 11.946428571428571 L 11.946428571428571 11.946428571428571 L 11.946428571428571 23.892857142857142 L 0 23.892857142857142Z" fill="#ed4c57"></path><path d="M 23.892857142857142 0 L 47.785714285714285 0 L 47.785714285714285 11.946428571428571 L 35.839285714285715 11.946428571428571 L 35.839285714285715 23.892857142857142 L 23.892857142857142 23.892857142857142Z" fill="#f6aa3d"></path><path d="M 23.892857142857142 23.892857142857142 L 47.785714285714285 23.892857142857142 L 47.785714285714285 35.839285714285715 L 35.839285714285715 35.839285714285715 L 35.839285714285715 47.785714285714285 L 23.892857142857142 47.785714285714285Z" fill="#f6aa3d"></path><path d="M 2.7163033727057544e-15 47.785714285714285 L -2.7163033727057544e-15 23.892857142857146 L 11.94642857142857 23.892857142857142 L 11.946428571428571 35.839285714285715 L 23.892857142857142 35.839285714285715 L 23.892857142857146 47.785714285714285Z" fill="#ed4c57"></path></g><g style="transform: translate(0px, 143.357px) rotate(180deg); transform-origin: 23.8929px 23.8929px 0px; background-color: rgb(0, 0, 0);"><path d="M 0 0 L 47.785714285714285 0 L 47.785714285714285 47.785714285714285 L 0 47.785714285714285Z" fill="#1f316a"></path><path d="M 23.892857142857142 0 L 47.785714285714285 0 L 47.785714285714285 23.892857142857142 L 23.892857142857142 23.892857142857142Z" fill="#e0dc8b"></path><path d="M 11.946428571428571 0 L 23.892857142857142 11.946428571428571 L 11.946428571428571 23.892857142857142 L 0 11.946428571428571Z" fill="#f6aa3d"></path><path d="M 11.946428571428571 23.892857142857142 L 23.892857142857142 35.839285714285715 L 11.946428571428571 47.785714285714285 L 0 35.839285714285715Z" fill="#e0dc8b"></path><path d="M 35.839285714285715 23.892857142857142 L 47.785714285714285 35.839285714285715 L 35.839285714285715 47.785714285714285 L 23.892857142857142 35.839285714285715Z" fill="#e0dc8b"></path></g><g style="transform: translate(0px, 191.143px) rotate(90deg); transform-origin: 23.8929px 23.8929px 0px; background-color: rgb(0, 0, 0);"><path d="M 0 0 L 47.785714285714285 0 L 47.785714285714285 47.785714285714285 L 0 47.785714285714285Z" fill="#1f316a"></path><path d="M 47.785714285714285 23.89285714285714 L 47.785714285714285 47.785714285714285 L 2.7163033727057544e-15 47.785714285714285 L 0 23.892857142857146Z" fill="#f6aa3d"></path><path d="M 0 23.89285714285715 L -5.432606745411509e-15 5.432606745411509e-15 L 47.78571428571428 -5.432606745411509e-15 L 47.785714285714285 23.89285714285714Z" fill="#e0dc8b"></path></g><g style="transform: translate(0px, 238.929px) rotate(270deg); transform-origin: 23.8929px 23.8929px 0px; background-color: rgb(0, 0, 0);"><path d="M 0 0 L 47.785714285714285 0 L 47.785714285714285 47.785714285714285 L 0 47.785714285714285Z" fill="#1f316a"></path><path d="M 47.785714285714285 11.94642857142857 L 47.785714285714285 23.892857142857142 L 23.892857142857142 11.946428571428573 L 23.892857142857142 1.3581516863528772e-15Z" fill="#ed4c57"></path><path d="M 47.785714285714285 35.839285714285715 L 47.785714285714285 47.785714285714285 L 23.892857142857142 35.839285714285715 L 23.892857142857142 23.892857142857142Z" fill="#e0dc8b"></path><path d="M 23.892857142857142 -1.3581516863528772e-15 L 23.892857142857142 23.892857142857142 L 11.946428571428573 23.892857142857142 L 11.946428571428571 11.946428571428571 L 0 11.946428571428573 L -1.3581516863528772e-15 1.3581516863528772e-15Z" fill="#ed4c57"></path><path d="M 23.892857142857142 47.785714285714285 L 1.3581516863528772e-15 47.785714285714285 L 0 35.839285714285715 L 11.946428571428571 35.839285714285715 L 11.94642857142857 23.892857142857142 L 23.892857142857142 23.892857142857142Z" fill="#ed4c57"></path></g><g style="transform: translate(0px, 286.714px) rotate(360deg); transform-origin: 23.8929px 23.8929px 0px; background-color: rgb(0, 0, 0);"><path d="M 0 0 L 47.785714285714285 0 L 47.785714285714285 47.785714285714285 L 0 47.785714285714285Z" fill="#1f316a"></path><path d="M 47.785714285714285 -2.7163033727057544e-15 L 2.7163033727057544e-15 47.785714285714285 L -2.7163033727057544e-15 2.7163033727057544e-15Z" fill="#ed4c57"></path><path d="M 35.839285714285715 0 L 47.785714285714285 11.946428571428571 L 35.839285714285715 23.892857142857142 L 23.892857142857142 11.946428571428571Z" fill="#f6aa3d"></path></g><g style="transform: translate(47.7857px) rotate(360deg); transform-origin: 23.8929px 23.8929px 0px; background-color: rgb(0, 0, 0);"><path d="M 0 0 L 47.785714285714285 0 L 47.785714285714285 47.785714285714285 L 0 47.785714285714285Z" fill="#1f316a"></path><path d="M 47.785714285714285 -2.7163033727057544e-15 L 47.785714285714285 47.785714285714285 L 23.892857142857146 47.785714285714285 L 23.892857142857142 23.892857142857142 L 0 23.892857142857146 L -2.7163033727057544e-15 2.7163033727057544e-15Z" fill="#f6aa3d"></path><path d="M 31.857142857142854 15.928571428571427 L 31.857142857142854 31.857142857142854 L 23.892857142857142 31.857142857142854 L 23.892857142857142 23.892857142857142 L 15.928571428571427 23.892857142857142 L 15.928571428571427 15.928571428571427Z" fill="#e0dc8b"></path></g><g style="transform: translate(47.7857px, 47.7857px) rotate(90deg); transform-origin: 23.8929px 23.8929px 0px; background-color: rgb(0, 0, 0);"><path d="M 0 0 L 47.785714285714285 0 L 47.785714285714285 47.785714285714285 L 0 47.785714285714285Z" fill="#1f316a"></path><path d="M 0 0 A 47.785714285714285 47.785714285714285 0 0 1 47.785714285714285 47.78571428571428 L 47.785714285714285 0Z" fill="#e0dc8b"></path><path d="M 23.892857142857142 35.839285714285715 A 11.946428571428571 11.946428571428571 0 1 1 11.946428571428568 23.892857142857142 L 11.946428571428571 35.839285714285715Z" fill="#f6aa3d"></path></g><g style="transform: translate(47.7857px, 95.5714px) rotate(270deg); transform-origin: 23.8929px 23.8929px 0px; background-color: rgb(0, 0, 0);"><path d="M 0 0 L 47.785714285714285 0 L 47.785714285714285 47.785714285714285 L 0 47.785714285714285Z" fill="#1f316a"></path><path d="M 0 0 A 23.892857142857142 23.892857142857142 0 0 1 2.9260311022484975e-15 47.785714285714285 L 0 23.892857142857142Z" fill="#f6aa3d"></path><path d="M 47.785714285714285 -2.7163033727057544e-15 A 23.892857142857142 23.892857142857142 0 0 1 -2.7163033727057544e-15 5.432606745411509e-15 L 23.89285714285714 0Z" fill="#e0dc8b"></path></g><g style="transform: translate(47.7857px, 143.357px) rotate(0deg); transform-origin: 23.8929px 23.8929px 0px; background-color: rgb(0, 0, 0);"><path d="M 0 0 L 47.785714285714285 0 L 47.785714285714285 47.785714285714285 L 0 47.785714285714285Z" fill="#1f316a"></path><path d="M 47.785714285714285 11.946428571428571 A 11.946428571428571 11.946428571428571 0 1 0 47.785714285714285 11.948817857142856Z" fill="#ed4c57"></path><path d="M 47.785714285714285 23.892857142857142 A 23.892857142857142 23.892857142857142 0 0 1 23.89285714285715 47.785714285714285 L 47.785714285714285 47.785714285714285Z" fill="#ed4c57"></path><path d="M 23.892857142857142 47.785714285714285 A 23.892857142857142 23.892857142857142 0 0 1 -1.3581516863528772e-15 23.89285714285715 L 1.3581516863528772e-15 47.785714285714285Z" fill="#ed4c57"></path><path d="M 2.7163033727057544e-15 23.892857142857146 A 23.892857142857142 23.892857142857142 0 0 1 23.89285714285714 -2.7163033727057544e-15 L -2.7163033727057544e-15 2.7163033727057544e-15Z" fill="#e0dc8b"></path></g><g style="transform: translate(47.7857px, 191.143px) rotate(0deg); transform-origin: 23.8929px 23.8929px 0px; background-color: rgb(0, 0, 0);"><path d="M 0 0 L 47.785714285714285 0 L 47.785714285714285 47.785714285714285 L 0 47.785714285714285Z" fill="#1f316a"></path><path d="M 0 23.89285714285715 L -5.432606745411509e-15 5.432606745411509e-15 L 47.78571428571428 -5.432606745411509e-15 L 47.785714285714285 23.89285714285714Z" fill="#e0dc8b"></path><path d="M 31.857142857142854 15.928571428571427 A 15.928571428571427 15.928571428571427 0 0 1 15.928571428571427 31.857142857142854 L 31.857142857142854 31.857142857142854Z" fill="#f6aa3d"></path></g><g style="transform: translate(47.7857px, 238.929px) rotate(270deg); transform-origin: 23.8929px 23.8929px 0px; background-color: rgb(0, 0, 0);"><path d="M 0 0 L 47.785714285714285 0 L 47.785714285714285 47.785714285714285 L 0 47.785714285714285Z" fill="#1f316a"></path><path d="M 11.946428571428571 0 L 23.892857142857142 0 L 11.946428571428571 23.892857142857142 L 0 23.892857142857142Z" fill="#e0dc8b"></path><path d="M 23.892857142857142 35.839285714285715 L 23.892857142857142 47.785714285714285 L 0 35.839285714285715 L -1.3581516863528772e-15 23.892857142857142Z" fill="#ed4c57"></path><path d="M 35.839285714285715 0 L 47.785714285714285 0 L 35.839285714285715 23.892857142857142 L 23.892857142857142 23.892857142857142Z" fill="#f6aa3d"></path><path d="M 23.892857142857142 35.839285714285715 L 23.89285714285714 23.892857142857146 L 47.785714285714285 35.839285714285715 L 47.785714285714285 47.785714285714285Z" fill="#f6aa3d"></path></g><g style="transform: translate(47.7857px, 286.714px) rotate(360deg); transform-origin: 23.8929px 23.8929px 0px; background-color: rgb(0, 0, 0);"><path d="M 0 0 L 47.785714285714285 0 L 47.785714285714285 47.785714285714285 L 0 47.785714285714285Z" fill="#1f316a"></path><path d="M 23.892857142857142 -1.3581516863528772e-15 L 23.892857142857142 11.94642857142857 A 11.946428571428571 11.946428571428571 0 1 1 11.94642857142857 0 L 23.892857142857142 -1.3581516863528772e-15Z" fill="#f6aa3d"></path><path d="M 2.7163033727057544e-15 47.785714285714285 L 0 35.839285714285715 A 11.946428571428571 11.946428571428571 0 1 1 11.946428571428575 47.785714285714285 L 2.7163033727057544e-15 47.785714285714285Z" fill="#e0dc8b"></path><path d="M 47.785714285714285 -1.3581516863528772e-15 L 47.785714285714285 11.94642857142857 A 11.946428571428571 11.946428571428571 0 1 1 35.839285714285715 0 L 47.785714285714285 -1.3581516863528772e-15Z" fill="#ed4c57"></path><path d="M 47.785714285714285 47.785714285714285 L 35.839285714285715 47.785714285714285 A 11.946428571428571 11.946428571428571 0 1 1 47.785714285714285 35.839285714285715 L 47.785714285714285 47.785714285714285Z" fill="#e0dc8b"></path></g><g style="transform: translate(95.5714px) rotate(0deg); transform-origin: 23.8929px 23.8929px 0px; background-color: rgb(0, 0, 0);"><path d="M 0 0 L 47.785714285714285 0 L 47.785714285714285 47.785714285714285 L 0 47.785714285714285Z" fill="#1f316a"></path><path d="M 47.785714285714285 47.785714285714285 A 23.892857142857142 23.892857142857142 0 0 1 47.78571428571428 -2.7163033727057544e-15 L 47.785714285714285 23.89285714285714Z" fill="#ed4c57"></path><path d="M 0 15.928571428571427 L 15.928571428571427 23.892857142857142 L 0 31.857142857142854Z" fill="#f6aa3d"></path></g><g style="transform: translate(95.5714px, 47.7857px) rotate(90deg); transform-origin: 23.8929px 23.8929px 0px; background-color: rgb(0, 0, 0);"><path d="M 0 0 L 47.785714285714285 0 L 47.785714285714285 47.785714285714285 L 0 47.785714285714285Z" fill="#1f316a"></path><path d="M 11.946428571428571 11.946428571428571 L 0 11.946428571428573 L 11.94642857142857 0 L 23.892857142857142 11.94642857142857Z" fill="#e0dc8b"></path><path d="M 11.946428571428571 35.839285714285715 L 0 35.839285714285715 L 11.94642857142857 23.892857142857142 L 23.892857142857142 35.839285714285715Z" fill="#ed4c57"></path><path d="M 35.839285714285715 11.946428571428571 L 23.892857142857142 11.946428571428573 L 35.839285714285715 0 L 47.785714285714285 11.94642857142857Z" fill="#f6aa3d"></path><path d="M 35.839285714285715 35.839285714285715 L 47.785714285714285 35.839285714285715 L 35.839285714285715 47.785714285714285 L 23.892857142857142 35.839285714285715Z" fill="#f6aa3d"></path></g><g style="transform: translate(95.5714px, 95.5714px) rotate(360deg); transform-origin: 23.8929px 23.8929px 0px; background-color: rgb(0, 0, 0);"><path d="M 0 0 L 47.785714285714285 0 L 47.785714285714285 47.785714285714285 L 0 47.785714285714285Z" fill="#1f316a"></path><path d="M 23.892857142857142 23.892857142857142 L 11.946428571428573 23.892857142857142 L -1.3581516863528772e-15 1.3581516863528772e-15 L 11.94642857142857 0Z" fill="#ed4c57"></path><path d="M 23.892857142857142 23.892857142857142 L 23.892857142857142 35.839285714285715 L 1.3581516863528772e-15 47.785714285714285 L 0 35.839285714285715Z" fill="#f6aa3d"></path><path d="M 47.785714285714285 -1.3581516863528772e-15 L 47.785714285714285 11.94642857142857 L 23.892857142857142 23.892857142857142 L 23.892857142857142 11.946428571428573Z" fill="#ed4c57"></path><path d="M 23.892857142857142 23.892857142857142 L 35.839285714285715 23.892857142857142 L 47.785714285714285 47.785714285714285 L 35.839285714285715 47.785714285714285Z" fill="#f6aa3d"></path></g><g style="transform: translate(95.5714px, 143.357px) rotate(90deg); transform-origin: 23.8929px 23.8929px 0px; background-color: rgb(0, 0, 0);"><path d="M 0 0 L 47.785714285714285 0 L 47.785714285714285 47.785714285714285 L 0 47.785714285714285Z" fill="#1f316a"></path><path d="M 47.785714285714285 -2.7163033727057544e-15 L 47.785714285714285 47.785714285714285 L 23.892857142857146 47.785714285714285 L 0 23.892857142857146 L 23.89285714285714 0Z" fill="#f6aa3d"></path><path d="M 5.432606745411509e-15 47.78571428571429 L -5.432606745411509e-15 5.432606745411509e-15 L 23.89285714285714 0 L 47.785714285714285 23.89285714285714 L 23.89285714285715 47.785714285714285Z" fill="#ed4c57"></path></g><g style="transform: translate(95.5714px, 191.143px) rotate(360deg); transform-origin: 23.8929px 23.8929px 0px; background-color: rgb(0, 0, 0);"><path d="M 0 0 L 47.785714285714285 0 L 47.785714285714285 47.785714285714285 L 0 47.785714285714285Z" fill="#1f316a"></path><path d="M -1.3581516863528772e-15 1.3581516863528772e-15 L 23.892857142857142 7.964285714285713 L 23.892857142857142 15.92857142857143 L 1.3581516863528772e-15 23.892857142857142Z" fill="#e0dc8b"></path><path d="M -1.3581516863528772e-15 23.892857142857142 L 23.892857142857142 31.857142857142854 L 23.892857142857142 39.82142857142858 L 1.3581516863528772e-15 47.785714285714285Z" fill="#f6aa3d"></path><path d="M 47.785714285714285 -1.3581516863528772e-15 L 39.82142857142858 23.892857142857142 L 31.857142857142854 23.892857142857142 L 23.892857142857142 1.3581516863528772e-15Z" fill="#ed4c57"></path><path d="M 47.785714285714285 23.892857142857142 L 39.82142857142858 47.785714285714285 L 31.857142857142854 47.785714285714285 L 23.892857142857142 23.892857142857142Z" fill="#ed4c57"></path></g><g style="transform: translate(95.5714px, 238.929px) rotate(270deg); transform-origin: 23.8929px 23.8929px 0px; background-color: rgb(0, 0, 0);"><path d="M 0 0 L 47.785714285714285 0 L 47.785714285714285 47.785714285714285 L 0 47.785714285714285Z" fill="#1f316a"></path><path d="M 0 0 L 11.946428571428571 0 L 23.892857142857142 11.946428571428571 L 23.892857142857142 23.892857142857142 L 11.946428571428571 23.892857142857142 L 0 11.946428571428571Z" fill="#ed4c57"></path><path d="M 23.892857142857142 0 L 35.839285714285715 0 L 47.785714285714285 11.946428571428571 L 47.785714285714285 23.892857142857142 L 35.839285714285715 23.892857142857142 L 23.892857142857142 11.946428571428571Z" fill="#e0dc8b"></path><path d="M 23.892857142857142 23.892857142857142 L 35.839285714285715 23.892857142857142 L 47.785714285714285 35.839285714285715 L 47.785714285714285 47.785714285714285 L 35.839285714285715 47.785714285714285 L 23.892857142857142 35.839285714285715Z" fill="#e0dc8b"></path><path d="M 23.892857142857142 35.839285714285715 A 11.946428571428571 11.946428571428571 0 1 0 23.892857142857142 35.841674999999995Z" fill="#ed4c57"></path></g><g style="transform: translate(95.5714px, 286.714px) rotate(180deg); transform-origin: 23.8929px 23.8929px 0px; background-color: rgb(0, 0, 0);"><path d="M 0 0 L 47.785714285714285 0 L 47.785714285714285 47.785714285714285 L 0 47.785714285714285Z" fill="#1f316a"></path><path d="M 47.785714285714285 47.785714285714285 A 23.892857142857142 23.892857142857142 0 0 1 47.78571428571428 -2.7163033727057544e-15 L 47.785714285714285 23.89285714285714Z" fill="#f6aa3d"></path><path d="M 5.432606745411509e-15 47.78571428571429 A 23.892857142857142 23.892857142857142 0 0 1 47.78571428571429 47.78571428571428 L 23.89285714285715 47.785714285714285Z" fill="#ed4c57"></path></g><g style="transform: translate(143.357px) rotate(90deg); transform-origin: 23.8929px 23.8929px 0px; background-color: rgb(0, 0, 0);"><path d="M 0 0 L 47.785714285714285 0 L 47.785714285714285 47.785714285714285 L 0 47.785714285714285Z" fill="#1f316a"></path><path d="M 23.892857142857142 -1.3581516863528772e-15 L -1.3581516863528772e-15 1.3581516863528772e-15 L 11.946428571428571 11.946428571428571 L 1.3581516863528772e-15 23.892857142857142 L 23.892857142857142 23.892857142857142Z" fill="#f6aa3d"></path><path d="M 2.7163033727057544e-15 47.785714285714285 L 23.892857142857146 47.785714285714285 L 11.946428571428571 35.839285714285715 L 23.89285714285714 23.89285714285714 L -2.7163033727057544e-15 23.892857142857146Z" fill="#ed4c57"></path><path d="M 23.892857142857146 23.892857142857146 L 47.785714285714285 23.89285714285714 L 35.839285714285715 11.946428571428571 L 47.785714285714285 -2.7163033727057544e-15 L 23.89285714285714 2.7163033727057544e-15Z" fill="#ed4c57"></path><path d="M 23.892857142857146 47.785714285714285 L 47.785714285714285 47.785714285714285 L 35.839285714285715 35.839285714285715 L 47.785714285714285 23.89285714285714 L 23.89285714285714 23.892857142857146Z" fill="#f6aa3d"></path></g><g style="transform: translate(143.357px, 47.7857px) rotate(360deg); transform-origin: 23.8929px 23.8929px 0px; background-color: rgb(0, 0, 0);"><path d="M 0 0 L 47.785714285714285 0 L 47.785714285714285 47.785714285714285 L 0 47.785714285714285Z" fill="#1f316a"></path><path d="M 23.892857142857142 -1.3581516863528772e-15 A 11.946428571428571 11.946428571428571 0 0 1 -1.3581516863528772e-15 2.7163033727057544e-15 L 11.94642857142857 0Z" fill="#ed4c57"></path><path d="M 35.839285714285715 11.946428571428571 L 35.839285714285715 0 L 47.785714285714285 11.94642857142857 L 35.839285714285715 23.892857142857142Z" fill="#f6aa3d"></path><path d="M 35.839285714285715 35.839285714285715 L 35.839285714285715 23.892857142857142 L 47.785714285714285 35.839285714285715 L 35.839285714285715 47.785714285714285Z" fill="#f6aa3d"></path><path d="M 2.7163033727057544e-15 47.785714285714285 A 11.946428571428571 11.946428571428571 0 0 1 23.892857142857146 47.78571428571428 L 11.946428571428575 47.785714285714285Z" fill="#ed4c57"></path></g><g style="transform: translate(143.357px, 95.5714px) rotate(360deg); transform-origin: 23.8929px 23.8929px 0px; background-color: rgb(0, 0, 0);"><path d="M 0 0 L 47.785714285714285 0 L 47.785714285714285 47.785714285714285 L 0 47.785714285714285Z" fill="#1f316a"></path><path d="M 0 0 L 47.785714285714285 0 L 47.785714285714285 47.785714285714285 L 0 47.785714285714285Z" fill="#f6aa3d"></path><path d="M 31.857142857142854 39.82142857142857 L 31.857142857142854 47.785714285714285 L 15.928571428571427 47.785714285714285 L 15.928571428571427 39.82142857142857Z" fill="#ed4c57"></path></g><g style="transform: translate(143.357px, 143.357px) rotate(180deg); transform-origin: 23.8929px 23.8929px 0px; background-color: rgb(0, 0, 0);"><path d="M 0 0 L 47.785714285714285 0 L 47.785714285714285 47.785714285714285 L 0 47.785714285714285Z" fill="#1f316a"></path><path d="M 2.7163033727057544e-15 23.892857142857146 A 23.892857142857142 23.892857142857142 0 0 1 23.89285714285714 -2.7163033727057544e-15 L -2.7163033727057544e-15 2.7163033727057544e-15Z" fill="#f6aa3d"></path><path d="M 23.892857142857142 47.785714285714285 A 23.892857142857142 23.892857142857142 0 0 1 -1.3581516863528772e-15 23.89285714285715 L 1.3581516863528772e-15 47.785714285714285Z" fill="#ed4c57"></path><path d="M 47.785714285714285 23.892857142857142 A 23.892857142857142 23.892857142857142 0 0 1 23.892857142857142 4.0744550590586314e-15 L 23.892857142857142 23.892857142857142Z" fill="#ed4c57"></path><path d="M 47.785714285714285 47.785714285714285 A 23.892857142857142 23.892857142857142 0 0 1 23.892857142857142 23.89285714285715 L 23.892857142857142 47.785714285714285Z" fill="#f6aa3d"></path></g><g style="transform: translate(143.357px, 191.143px) rotate(0deg); transform-origin: 23.8929px 23.8929px 0px; background-color: rgb(0, 0, 0);"><path d="M 0 0 L 47.785714285714285 0 L 47.785714285714285 47.785714285714285 L 0 47.785714285714285Z" fill="#1f316a"></path><path d="M 2.7163033727057544e-15 23.892857142857146 L -2.7163033727057544e-15 2.7163033727057544e-15 A 11.946428571428571 11.946428571428571 0 0 0 23.89285714285714 -2.7163033727057544e-15 L 23.892857142857146 23.89285714285714Z" fill="#e0dc8b"></path><path d="M 2.7163033727057544e-15 47.785714285714285 L -2.7163033727057544e-15 23.892857142857146 A 11.946428571428571 11.946428571428571 0 0 0 23.89285714285714 23.89285714285714 L 23.892857142857146 47.785714285714285Z" fill="#e0dc8b"></path><path d="M 47.785714285714285 -1.3581516863528772e-15 L 47.785714285714285 23.892857142857142 A 11.946428571428571 11.946428571428571 0 0 0 23.892857142857142 23.892857142857142 L 23.892857142857142 1.3581516863528772e-15Z" fill="#f6aa3d"></path><path d="M 23.892857142857146 47.785714285714285 L 23.89285714285714 23.892857142857146 A 11.946428571428571 11.946428571428571 0 0 0 47.785714285714285 23.89285714285714 L 47.785714285714285 47.785714285714285Z" fill="#ed4c57"></path></g><g style="transform: translate(143.357px, 238.929px) rotate(0deg); transform-origin: 23.8929px 23.8929px 0px; background-color: rgb(0, 0, 0);"><path d="M 0 0 L 47.785714285714285 0 L 47.785714285714285 47.785714285714285 L 0 47.785714285714285Z" fill="#1f316a"></path><path d="M 23.892857142857142 1.3581516863528772e-15 L 47.785714285714285 11.94642857142857 L 23.892857142857142 23.892857142857142Z" fill="#f6aa3d"></path><path d="M 23.892857142857142 23.892857142857142 L 47.785714285714285 35.839285714285715 L 23.892857142857142 47.785714285714285Z" fill="#ed4c57"></path><path d="M 23.892857142857142 -1.3581516863528772e-15 L 11.946428571428573 23.892857142857142 L -1.3581516863528772e-15 1.3581516863528772e-15Z" fill="#ed4c57"></path><path d="M 23.892857142857142 23.892857142857142 L 11.946428571428573 47.785714285714285 L -1.3581516863528772e-15 23.892857142857142Z" fill="#f6aa3d"></path></g><g style="transform: translate(143.357px, 286.714px) rotate(0deg); transform-origin: 23.8929px 23.8929px 0px; background-color: rgb(0, 0, 0);"><path d="M 0 0 L 47.785714285714285 0 L 47.785714285714285 47.785714285714285 L 0 47.785714285714285Z" fill="#1f316a"></path><path d="M 0 0 L 11.946428571428571 0 A 11.946428571428571 11.946428571428571 0 0 1 11.946428571428571 23.892857142857142 L 0 23.892857142857142Z" fill="#e0dc8b"></path><path d="M 23.892857142857142 23.892857142857142 L 23.892857142857142 35.839285714285715 A 11.946428571428571 11.946428571428571 0 0 1 0 35.839285714285715 L -1.3581516863528772e-15 23.892857142857142Z" fill="#e0dc8b"></path><path d="M 23.892857142857146 23.892857142857146 L 23.892857142857142 11.946428571428575 A 11.946428571428571 11.946428571428571 0 0 1 47.785714285714285 11.94642857142857 L 47.785714285714285 23.89285714285714Z" fill="#ed4c57"></path><path d="M 47.785714285714285 47.785714285714285 L 35.839285714285715 47.785714285714285 A 11.946428571428571 11.946428571428571 0 0 1 35.839285714285715 23.892857142857142 L 47.785714285714285 23.892857142857142Z" fill="#f6aa3d"></path></g><g style="transform: translate(191.143px) rotate(180deg); transform-origin: 23.8929px 23.8929px 0px; background-color: rgb(0, 0, 0);"><path d="M 0 0 L 47.785714285714285 0 L 47.785714285714285 47.785714285714285 L 0 47.785714285714285Z" fill="#1f316a"></path><path d="M 47.785714285714285 -2.7163033727057544e-15 L 47.785714285714285 47.785714285714285 L 23.892857142857146 47.785714285714285 L 0 23.892857142857146 L 23.89285714285714 0Z" fill="#f6aa3d"></path><path d="M 5.432606745411509e-15 47.78571428571429 L -5.432606745411509e-15 5.432606745411509e-15 L 23.89285714285714 0 L 47.785714285714285 23.89285714285714 L 23.89285714285715 47.785714285714285Z" fill="#ed4c57"></path></g><g style="transform: translate(191.143px, 47.7857px) rotate(90deg); transform-origin: 23.8929px 23.8929px 0px; background-color: rgb(0, 0, 0);"><path d="M 0 0 L 47.785714285714285 0 L 47.785714285714285 47.785714285714285 L 0 47.785714285714285Z" fill="#1f316a"></path><path d="M 5.432606745411509e-15 47.78571428571429 A 47.785714285714285 47.785714285714285 0 0 1 47.78571428571428 -5.432606745411509e-15 L -5.432606745411509e-15 5.432606745411509e-15Z" fill="#e0dc8b"></path><path d="M 47.785714285714285 23.892857142857142 L 47.785714285714285 35.839285714285715 A 11.946428571428571 11.946428571428571 0 1 1 35.839285714285715 23.892857142857142 L 47.785714285714285 23.892857142857142Z" fill="#e0dc8b"></path></g><g style="transform: translate(191.143px, 95.5714px) rotate(360deg); transform-origin: 23.8929px 23.8929px 0px; background-color: rgb(0, 0, 0);"><path d="M 0 0 L 47.785714285714285 0 L 47.785714285714285 47.785714285714285 L 0 47.785714285714285Z" fill="#1f316a"></path><path d="M 47.785714285714285 23.892857142857142 A 23.892857142857142 23.892857142857142 0 1 0 47.785714285714285 23.897635714285713Z" fill="#e0dc8b"></path><path d="M 15.928571428571427 15.928571428571427 L 31.857142857142854 15.928571428571427 L 23.892857142857142 31.857142857142854 L 15.928571428571427 31.857142857142854Z" fill="#e0dc8b"></path></g><g style="transform: translate(191.143px, 143.357px) rotate(180deg); transform-origin: 23.8929px 23.8929px 0px; background-color: rgb(0, 0, 0);"><path d="M 0 0 L 47.785714285714285 0 L 47.785714285714285 47.785714285714285 L 0 47.785714285714285Z" fill="#1f316a"></path><path d="M 5.432606745411509e-15 47.78571428571429 L 0 23.89285714285715 L 47.785714285714285 23.89285714285714 L 47.78571428571429 47.78571428571428Z" fill="#f6aa3d"></path><path d="M 31.85714285714285 15.928571428571425 L 23.892857142857142 31.857142857142854 L 15.928571428571425 15.92857142857143Z" fill="#ed4c57"></path></g><g style="transform: translate(191.143px, 191.143px) rotate(0deg); transform-origin: 23.8929px 23.8929px 0px; background-color: rgb(0, 0, 0);"><path d="M 0 0 L 47.785714285714285 0 L 47.785714285714285 47.785714285714285 L 0 47.785714285714285Z" fill="#1f316a"></path><path d="M 47.785714285714285 -1.3581516863528772e-15 A 11.946428571428571 11.946428571428571 0 0 1 23.892857142857142 2.7163033727057544e-15 L 35.839285714285715 0Z" fill="#e0dc8b"></path><path d="M 47.785714285714285 23.892857142857142 A 11.946428571428571 11.946428571428571 0 0 1 23.892857142857142 23.892857142857146 L 35.839285714285715 23.892857142857142Z" fill="#e0dc8b"></path><path d="M 2.7163033727057544e-15 23.892857142857146 L 0 11.946428571428575 A 11.946428571428571 11.946428571428571 0 0 0 23.892857142857142 11.94642857142857 L 23.892857142857146 23.89285714285714Z" fill="#f6aa3d"></path><path d="M 2.7163033727057544e-15 47.785714285714285 L 0 35.839285714285715 A 11.946428571428571 11.946428571428571 0 0 0 23.892857142857142 35.839285714285715 L 23.892857142857146 47.785714285714285Z" fill="#f6aa3d"></path></g><g style="transform: translate(191.143px, 238.929px) rotate(180deg); transform-origin: 23.8929px 23.8929px 0px; background-color: rgb(0, 0, 0);"><path d="M 0 0 L 47.785714285714285 0 L 47.785714285714285 47.785714285714285 L 0 47.785714285714285Z" fill="#1f316a"></path><path d="M 47.785714285714285 47.785714285714285 L 2.7163033727057544e-15 47.785714285714285 A 23.892857142857142 23.892857142857142 0 0 0 -2.7163033727057544e-15 2.7163033727057544e-15 L 47.785714285714285 -2.7163033727057544e-15Z" fill="#e0dc8b"></path><path d="M 31.85714285714286 31.85714285714285 L 15.92857142857143 31.85714285714286 L 23.89285714285714 15.928571428571427 L 31.85714285714285 15.928571428571425Z" fill="#f6aa3d"></path></g><g style="transform: translate(191.143px, 286.714px) rotate(360deg); transform-origin: 23.8929px 23.8929px 0px; background-color: rgb(0, 0, 0);"><path d="M 0 0 L 47.785714285714285 0 L 47.785714285714285 47.785714285714285 L 0 47.785714285714285Z" fill="#1f316a"></path><path d="M 0 23.892857142857142 L 0 47.785714285714285 L 11.946428571428571 35.839285714285715 L 23.892857142857142 47.785714285714285 L 23.892857142857142 23.892857142857142Z" fill="#e0dc8b"></path><path d="M 47.785714285714285 -1.3581516863528772e-15 L 23.892857142857142 23.892857142857142 L 23.892857142857142 1.3581516863528772e-15Z" fill="#f6aa3d"></path><path d="M 47.785714285714285 23.892857142857142 L 23.892857142857142 47.785714285714285 L 23.892857142857142 23.892857142857142Z" fill="#ed4c57"></path><path d="M 23.892857142857142 -1.3581516863528772e-15 L -1.3581516863528772e-15 1.3581516863528772e-15 L 11.946428571428571 11.946428571428571 L 1.3581516863528772e-15 23.892857142857142 L 23.892857142857142 23.892857142857142Z" fill="#f6aa3d"></path></g><g style="transform: translate(238.929px) rotate(90deg); transform-origin: 23.8929px 23.8929px 0px; background-color: rgb(0, 0, 0);"><path d="M 0 0 L 47.785714285714285 0 L 47.785714285714285 47.785714285714285 L 0 47.785714285714285Z" fill="#1f316a"></path><path d="M 23.892857142857142 11.94642857142857 L 23.892857142857142 23.892857142857142 L 0 11.946428571428573 L -1.3581516863528772e-15 1.3581516863528772e-15Z" fill="#e0dc8b"></path><path d="M 23.892857142857142 35.839285714285715 L 23.892857142857142 47.785714285714285 L 0 35.839285714285715 L -1.3581516863528772e-15 23.892857142857142Z" fill="#ed4c57"></path><path d="M 47.785714285714285 11.94642857142857 L 47.785714285714285 23.892857142857142 L 23.892857142857142 11.946428571428573 L 23.892857142857142 1.3581516863528772e-15Z" fill="#e0dc8b"></path><path d="M 47.785714285714285 35.839285714285715 L 47.785714285714285 47.785714285714285 L 23.892857142857142 35.839285714285715 L 23.892857142857142 23.892857142857142Z" fill="#e0dc8b"></path></g><g style="transform: translate(238.929px, 47.7857px) rotate(270deg); transform-origin: 23.8929px 23.8929px 0px; background-color: rgb(0, 0, 0);"><path d="M 0 0 L 47.785714285714285 0 L 47.785714285714285 47.785714285714285 L 0 47.785714285714285Z" fill="#1f316a"></path><path d="M 0 0 A 11.946428571428571 11.946428571428571 0 0 1 1.4630155511242487e-15 23.892857142857142 L 0 11.946428571428571Z" fill="#e0dc8b"></path><path d="M 0 23.892857142857142 A 11.946428571428571 11.946428571428571 0 0 1 1.4630155511242487e-15 47.785714285714285 L 0 35.839285714285715Z" fill="#f6aa3d"></path><path d="M 47.785714285714285 -1.3581516863528772e-15 L 47.785714285714285 23.892857142857142 L 23.892857142857142 11.946428571428573 L 23.892857142857142 1.3581516863528772e-15Z" fill="#ed4c57"></path><path d="M 47.785714285714285 23.892857142857142 L 47.785714285714285 47.785714285714285 L 23.892857142857142 35.839285714285715 L 23.892857142857142 23.892857142857142Z" fill="#f6aa3d"></path></g><g style="transform: translate(238.929px, 95.5714px) rotate(90deg); transform-origin: 23.8929px 23.8929px 0px; background-color: rgb(0, 0, 0);"><path d="M 0 0 L 47.785714285714285 0 L 47.785714285714285 47.785714285714285 L 0 47.785714285714285Z" fill="#1f316a"></path><path d="M 2.7163033727057544e-15 23.892857142857146 L 23.892857142857146 23.89285714285714 L 11.946428571428571 11.946428571428571 L 23.89285714285714 -2.7163033727057544e-15 L -2.7163033727057544e-15 2.7163033727057544e-15Z" fill="#e0dc8b"></path><path d="M 23.892857142857142 23.892857142857142 L -1.3581516863528772e-15 23.892857142857142 L 11.946428571428571 35.839285714285715 L 1.3581516863528772e-15 47.785714285714285 L 23.892857142857142 47.785714285714285Z" fill="#e0dc8b"></path><path d="M 23.892857142857146 23.892857142857146 L 47.785714285714285 23.89285714285714 L 35.839285714285715 11.946428571428571 L 47.785714285714285 -2.7163033727057544e-15 L 23.89285714285714 2.7163033727057544e-15Z" fill="#e0dc8b"></path><path d="M 47.785714285714285 23.892857142857142 L 23.892857142857142 23.892857142857142 L 35.839285714285715 35.839285714285715 L 23.892857142857142 47.785714285714285 L 47.785714285714285 47.785714285714285Z" fill="#e0dc8b"></path></g><g style="transform: translate(238.929px, 143.357px) rotate(360deg); transform-origin: 23.8929px 23.8929px 0px; background-color: rgb(0, 0, 0);"><path d="M 0 0 L 47.785714285714285 0 L 47.785714285714285 47.785714285714285 L 0 47.785714285714285Z" fill="#1f316a"></path><path d="M 47.785714285714285 47.785714285714285 L 2.7163033727057544e-15 47.785714285714285 L 0 23.892857142857146 L 23.89285714285714 0 L 47.785714285714285 23.89285714285714Z" fill="#e0dc8b"></path><path d="M 31.857142857142854 31.857142857142854 L 31.857142857142854 39.82142857142857 A 7.9642857142857135 7.9642857142857135 0 0 0 15.928571428571427 39.82142857142857 L 15.928571428571427 31.857142857142854Z" fill="#e0dc8b"></path></g><g style="transform: translate(238.929px, 191.143px) rotate(90deg); transform-origin: 23.8929px 23.8929px 0px; background-color: rgb(0, 0, 0);"><path d="M 0 0 L 47.785714285714285 0 L 47.785714285714285 47.785714285714285 L 0 47.785714285714285Z" fill="#1f316a"></path><path d="M 11.946428571428571 11.946428571428571 L 11.94642857142857 0 L 23.892857142857142 11.94642857142857 L 11.946428571428575 23.892857142857142Z" fill="#e0dc8b"></path><path d="M 11.946428571428571 35.839285714285715 L 11.946428571428573 47.785714285714285 L 0 35.839285714285715 L 11.94642857142857 23.892857142857142Z" fill="#f6aa3d"></path><path d="M 35.839285714285715 11.946428571428571 L 23.892857142857142 11.946428571428573 L 35.839285714285715 0 L 47.785714285714285 11.94642857142857Z" fill="#f6aa3d"></path><path d="M 35.839285714285715 35.839285714285715 L 23.892857142857142 35.839285714285715 L 35.839285714285715 23.892857142857142 L 47.785714285714285 35.839285714285715Z" fill="#e0dc8b"></path></g><g style="transform: translate(238.929px, 238.929px) rotate(90deg); transform-origin: 23.8929px 23.8929px 0px; background-color: rgb(0, 0, 0);"><path d="M 0 0 L 47.785714285714285 0 L 47.785714285714285 47.785714285714285 L 0 47.785714285714285Z" fill="#1f316a"></path><path d="M 47.785714285714285 23.892857142857142 A 23.892857142857142 23.892857142857142 0 1 0 47.785714285714285 23.897635714285713Z" fill="#e0dc8b"></path><path d="M 31.85714285714286 31.85714285714285 A 15.928571428571427 15.928571428571427 0 0 1 15.928571428571425 15.92857142857143 L 31.85714285714285 15.928571428571425Z" fill="#f6aa3d"></path></g><g style="transform: translate(238.929px, 286.714px) rotate(90deg); transform-origin: 23.8929px 23.8929px 0px; background-color: rgb(0, 0, 0);"><path d="M 0 0 L 47.785714285714285 0 L 47.785714285714285 47.785714285714285 L 0 47.785714285714285Z" fill="#1f316a"></path><path d="M 0 0 L 47.785714285714285 0 L 23.892857142857142 47.785714285714285 L 0 47.785714285714285Z" fill="#f6aa3d"></path><path d="M 5.432606745411509e-15 47.78571428571429 L -5.432606745411509e-15 5.432606745411509e-15 L 47.785714285714285 23.89285714285714 L 47.78571428571429 47.78571428571428Z" fill="#e0dc8b"></path></g><g style="transform: translate(286.714px) rotate(360deg); transform-origin: 23.8929px 23.8929px 0px; background-color: rgb(0, 0, 0);"><path d="M 0 0 L 47.785714285714285 0 L 47.785714285714285 47.785714285714285 L 0 47.785714285714285Z" fill="#1f316a"></path><path d="M 47.785714285714285 47.785714285714285 L 2.7163033727057544e-15 47.785714285714285 A 23.892857142857142 23.892857142857142 0 0 0 -2.7163033727057544e-15 2.7163033727057544e-15 L 47.785714285714285 -2.7163033727057544e-15Z" fill="#f6aa3d"></path><path d="M 31.85714285714286 31.85714285714285 L 23.892857142857142 31.857142857142854 A 7.9642857142857135 7.9642857142857135 0 1 1 31.857142857142854 23.89285714285714 L 31.85714285714286 31.85714285714285Z" fill="#e0dc8b"></path></g><g style="transform: translate(286.714px, 47.7857px) rotate(180deg); transform-origin: 23.8929px 23.8929px 0px; background-color: rgb(0, 0, 0);"><path d="M 0 0 L 47.785714285714285 0 L 47.785714285714285 47.785714285714285 L 0 47.785714285714285Z" fill="#1f316a"></path><path d="M 0 11.946428571428575 L -2.7163033727057544e-15 2.7163033727057544e-15 L 23.892857142857142 11.94642857142857 L 23.892857142857146 23.89285714285714Z" fill="#ed4c57"></path><path d="M 0 35.839285714285715 L -2.7163033727057544e-15 23.892857142857146 L 23.892857142857142 35.839285714285715 L 23.892857142857146 47.785714285714285Z" fill="#f6aa3d"></path><path d="M 47.785714285714285 11.94642857142857 L 47.785714285714285 23.892857142857142 L 23.892857142857142 11.946428571428573 L 23.892857142857142 1.3581516863528772e-15Z" fill="#e0dc8b"></path><path d="M 47.785714285714285 35.839285714285715 L 47.785714285714285 47.785714285714285 L 23.892857142857142 35.839285714285715 L 23.892857142857142 23.892857142857142Z" fill="#e0dc8b"></path></g><g style="transform: translate(286.714px, 95.5714px) rotate(270deg); transform-origin: 23.8929px 23.8929px 0px; background-color: rgb(0, 0, 0);"><path d="M 0 0 L 47.785714285714285 0 L 47.785714285714285 47.785714285714285 L 0 47.785714285714285Z" fill="#1f316a"></path><path d="M 47.785714285714285 47.785714285714285 L 2.7163033727057544e-15 47.785714285714285 L 0 23.892857142857146 L 23.89285714285714 0 L 47.785714285714285 23.89285714285714Z" fill="#e0dc8b"></path><path d="M 31.85714285714286 47.78571428571428 L 15.92857142857143 47.785714285714285 L 15.928571428571427 39.82142857142857 L 23.89285714285714 31.857142857142854 L 31.857142857142854 39.82142857142857Z" fill="#ed4c57"></path></g><g style="transform: translate(286.714px, 143.357px) rotate(90deg); transform-origin: 23.8929px 23.8929px 0px; background-color: rgb(0, 0, 0);"><path d="M 0 0 L 47.785714285714285 0 L 47.785714285714285 47.785714285714285 L 0 47.785714285714285Z" fill="#1f316a"></path><path d="M 47.785714285714285 47.785714285714285 L 23.892857142857142 23.892857142857142 L 2.7163033727057544e-15 47.785714285714285 L 0 23.892857142857146 L 23.89285714285714 0 L 47.785714285714285 23.89285714285714Z" fill="#f6aa3d"></path><path d="M 47.785714285714285 47.785714285714285 L 23.892857142857142 23.892857142857142 L 2.7163033727057544e-15 47.785714285714285 L 0 23.892857142857146 L 23.89285714285714 0 L 47.785714285714285 23.89285714285714Z" fill="#ed4c57"></path></g><g style="transform: translate(286.714px, 191.143px) rotate(180deg); transform-origin: 23.8929px 23.8929px 0px; background-color: rgb(0, 0, 0);"><path d="M 0 0 L 47.785714285714285 0 L 47.785714285714285 47.785714285714285 L 0 47.785714285714285Z" fill="#1f316a"></path><path d="M 47.785714285714285 23.892857142857142 A 23.892857142857142 23.892857142857142 0 1 0 47.785714285714285 23.897635714285713Z" fill="#f6aa3d"></path><path d="M 31.85714285714286 15.928571428571425 L 23.892857142857142 7.9642857142857135 L 15.92857142857143 15.92857142857143 L 15.928571428571427 7.964285714285715 L 23.89285714285714 0 L 31.857142857142854 7.964285714285713Z" fill="#f6aa3d"></path></g><g style="transform: translate(286.714px, 238.929px) rotate(180deg); transform-origin: 23.8929px 23.8929px 0px; background-color: rgb(0, 0, 0);"><path d="M 0 0 L 47.785714285714285 0 L 47.785714285714285 47.785714285714285 L 0 47.785714285714285Z" fill="#1f316a"></path><path d="M 2.7163033727057544e-15 23.892857142857146 A 23.892857142857142 23.892857142857142 0 0 1 23.89285714285714 -2.7163033727057544e-15 L 23.892857142857146 23.89285714285714Z" fill="#e0dc8b"></path><path d="M 2.7163033727057544e-15 47.785714285714285 A 23.892857142857142 23.892857142857142 0 0 1 23.89285714285714 23.89285714285714 L 23.892857142857146 47.785714285714285Z" fill="#f6aa3d"></path><path d="M 23.892857142857146 23.892857142857146 A 23.892857142857142 23.892857142857142 0 0 1 47.78571428571428 -2.7163033727057544e-15 L 47.785714285714285 23.89285714285714Z" fill="#e0dc8b"></path><path d="M 47.785714285714285 23.892857142857142 A 23.892857142857142 23.892857142857142 0 0 1 23.89285714285715 47.785714285714285 L 23.892857142857142 23.892857142857142Z" fill="#f6aa3d"></path></g><g style="transform: translate(286.714px, 286.714px) rotate(180deg); transform-origin: 23.8929px 23.8929px 0px; background-color: rgb(0, 0, 0);"><path d="M 0 0 L 47.785714285714285 0 L 47.785714285714285 47.785714285714285 L 0 47.785714285714285Z" fill="#1f316a"></path><path d="M 11.946428571428573 23.892857142857142 L 1.3581516863528772e-15 23.892857142857142 L -1.3581516863528772e-15 1.3581516863528772e-15 L 11.94642857142857 0Z" fill="#ed4c57"></path><path d="M 11.946428571428573 47.785714285714285 L 1.3581516863528772e-15 47.785714285714285 L -1.3581516863528772e-15 23.892857142857142 L 11.94642857142857 23.892857142857142Z" fill="#ed4c57"></path><path d="M 35.839285714285715 23.892857142857142 L 23.892857142857142 23.892857142857142 L 23.892857142857142 1.3581516863528772e-15 L 35.839285714285715 0Z" fill="#e0dc8b"></path><path d="M 35.839285714285715 47.785714285714285 L 23.892857142857142 47.785714285714285 L 23.892857142857142 23.892857142857142 L 35.839285714285715 23.892857142857142Z" fill="#ed4c57"></path></g><g style="transform: translate(334.5px) rotate(360deg); transform-origin: 23.8929px 23.8929px 0px; background-color: rgb(0, 0, 0);"><path d="M 0 0 L 47.785714285714285 0 L 47.785714285714285 47.785714285714285 L 0 47.785714285714285Z" fill="#1f316a"></path><path d="M 0 0 L 23.892857142857142 0 L 23.892857142857142 11.946428571428571 L 11.946428571428571 23.892857142857142 L 0 11.946428571428571Z" fill="#f6aa3d"></path><path d="M 0 23.892857142857142 L 23.892857142857142 23.892857142857142 L 23.892857142857142 35.839285714285715 L 11.946428571428571 47.785714285714285 L 0 35.839285714285715Z" fill="#ed4c57"></path><path d="M 47.785714285714285 23.892857142857142 L 23.892857142857142 23.892857142857142 L 23.892857142857142 11.946428571428573 L 35.839285714285715 0 L 47.785714285714285 11.94642857142857Z" fill="#f6aa3d"></path><path d="M 47.785714285714285 47.785714285714285 L 23.892857142857142 47.785714285714285 L 23.892857142857142 35.839285714285715 L 35.839285714285715 23.892857142857142 L 47.785714285714285 35.839285714285715Z" fill="#f6aa3d"></path></g><g style="transform: translate(334.5px, 47.7857px) rotate(0deg); transform-origin: 23.8929px 23.8929px 0px; background-color: rgb(0, 0, 0);"><path d="M 0 0 L 47.785714285714285 0 L 47.785714285714285 47.785714285714285 L 0 47.785714285714285Z" fill="#1f316a"></path><path d="M 47.785714285714285 23.892857142857142 A 23.892857142857142 23.892857142857142 0 1 0 47.785714285714285 23.897635714285713Z" fill="#e0dc8b"></path><path d="M 31.857142857142854 15.928571428571427 L 31.857142857142854 23.892857142857142 A 7.9642857142857135 7.9642857142857135 0 0 1 15.928571428571427 23.892857142857142 L 15.928571428571427 15.928571428571427Z" fill="#e0dc8b"></path></g><g style="transform: translate(334.5px, 95.5714px) rotate(360deg); transform-origin: 23.8929px 23.8929px 0px; background-color: rgb(0, 0, 0);"><path d="M 0 0 L 47.785714285714285 0 L 47.785714285714285 47.785714285714285 L 0 47.785714285714285Z" fill="#1f316a"></path><path d="M 0 0 L 47.785714285714285 47.785714285714285 L 0 47.785714285714285Z" fill="#ed4c57"></path><path d="M 23.892857142857142 0 A 23.892857142857142 23.892857142857142 0 0 1 47.785714285714285 23.89285714285714 L 47.785714285714285 0Z" fill="#f6aa3d"></path></g><g style="transform: translate(334.5px, 143.357px) rotate(90deg); transform-origin: 23.8929px 23.8929px 0px; background-color: rgb(0, 0, 0);"><path d="M 0 0 L 47.785714285714285 0 L 47.785714285714285 47.785714285714285 L 0 47.785714285714285Z" fill="#1f316a"></path><path d="M 11.946428571428571 23.892857142857142 L 23.892857142857142 23.892857142857142 L 11.946428571428571 47.785714285714285 L 0 47.785714285714285Z" fill="#f6aa3d"></path><path d="M 35.839285714285715 0 L 47.785714285714285 0 L 35.839285714285715 23.892857142857142 L 23.892857142857142 23.892857142857142Z" fill="#ed4c57"></path><path d="M 35.839285714285715 23.892857142857142 L 47.785714285714285 23.892857142857142 L 35.839285714285715 47.785714285714285 L 23.892857142857142 47.785714285714285Z" fill="#e0dc8b"></path><path d="M 11.946428571428573 23.892857142857142 L 1.3581516863528772e-15 23.892857142857142 L 11.94642857142857 0 L 23.892857142857142 -1.3581516863528772e-15Z" fill="#f6aa3d"></path></g><g style="transform: translate(334.5px, 191.143px) rotate(180deg); transform-origin: 23.8929px 23.8929px 0px; background-color: rgb(0, 0, 0);"><path d="M 0 0 L 47.785714285714285 0 L 47.785714285714285 47.785714285714285 L 0 47.785714285714285Z" fill="#1f316a"></path><path d="M 2.7163033727057544e-15 23.892857142857146 L -2.7163033727057544e-15 2.7163033727057544e-15 L 11.94642857142857 0 L 23.892857142857142 11.94642857142857 L 11.946428571428575 23.892857142857142Z" fill="#f6aa3d"></path><path d="M 2.7163033727057544e-15 47.785714285714285 L -2.7163033727057544e-15 23.892857142857146 L 11.94642857142857 23.892857142857142 L 23.892857142857142 35.839285714285715 L 11.946428571428575 47.785714285714285Z" fill="#ed4c57"></path><path d="M 23.892857142857146 23.892857142857146 L 23.89285714285714 2.7163033727057544e-15 L 35.839285714285715 0 L 47.785714285714285 11.94642857142857 L 35.839285714285715 23.892857142857142Z" fill="#ed4c57"></path><path d="M 23.892857142857146 47.785714285714285 L 23.89285714285714 23.892857142857146 L 35.839285714285715 23.892857142857142 L 47.785714285714285 35.839285714285715 L 35.839285714285715 47.785714285714285Z" fill="#ed4c57"></path></g><g style="transform: translate(334.5px, 238.929px) rotate(180deg); transform-origin: 23.8929px 23.8929px 0px; background-color: rgb(0, 0, 0);"><path d="M 0 0 L 47.785714285714285 0 L 47.785714285714285 47.785714285714285 L 0 47.785714285714285Z" fill="#1f316a"></path><path d="M 0 0 L 23.892857142857142 0 L 47.785714285714285 47.785714285714285 L 0 47.785714285714285Z" fill="#f6aa3d"></path><path d="M 23.892857142857142 35.839285714285715 A 11.946428571428571 11.946428571428571 0 1 0 23.892857142857142 35.841674999999995Z" fill="#f6aa3d"></path></g><g style="transform: translate(334.5px, 286.714px) rotate(0deg); transform-origin: 23.8929px 23.8929px 0px; background-color: rgb(0, 0, 0);"><path d="M 0 0 L 47.785714285714285 0 L 47.785714285714285 47.785714285714285 L 0 47.785714285714285Z" fill="#1f316a"></path><path d="M 11.946428571428571 35.839285714285715 L 11.946428571428573 47.785714285714285 L 0 35.839285714285715 L 11.94642857142857 23.892857142857142Z" fill="#f6aa3d"></path><path d="M 11.946428571428571 11.946428571428571 L 11.94642857142857 0 L 23.892857142857142 11.94642857142857 L 11.946428571428575 23.892857142857142Z" fill="#ed4c57"></path><path d="M 35.839285714285715 11.946428571428571 L 35.839285714285715 0 L 47.785714285714285 11.94642857142857 L 35.839285714285715 23.892857142857142Z" fill="#f6aa3d"></path><path d="M 35.839285714285715 35.839285714285715 L 35.839285714285715 23.892857142857142 L 47.785714285714285 35.839285714285715 L 35.839285714285715 47.785714285714285Z" fill="#e0dc8b"></path></g><g id="two-3594" transform="matrix(1 0 0 1 0 0)" opacity="1"></g></svg>