<?xml version="1.0" standalone="no"?>
<svg version="1.1" style="overflow: hidden; height: 334px; width: 417.5px; background-color: rgb(102, 168, 165);" width="418" height="334" xmlns="http://www.w3.org/2000/svg"><defs></defs><g style="transform: translate(0px) rotate(90deg); transform-origin: 41.75px 41.75px 0px; background-color: rgb(0, 0, 0);"><path d="M 0 0 L 83.5 0 L 83.5 83.5 L 0 83.5Z" fill="#66a8a5"></path><path d="M 0 0 L 83.5 0 L 83.5 83.5 L 0 83.5Z" fill="#e5ddcb"></path><path d="M 41.75 -2.3732127374387348e-15 A 41.75 41.75 0 0 1 7.119638212316204e-15 41.75 L -2.3732127374387348e-15 2.3732127374387348e-15Z" fill="#a7c5bd"></path></g><g style="transform: translate(0px, 83.5px) rotate(360deg); transform-origin: 41.75px 41.75px 0px; background-color: rgb(0, 0, 0);"><path d="M 0 0 L 83.5 0 L 83.5 83.5 L 0 83.5Z" fill="#66a8a5"></path><path d="M 83.5 -2.3732127374387348e-15 A 20.875 20.875 0 0 1 41.75 4.7464254748774695e-15 L 62.62500000000001 0Z" fill="#e5ddcb"></path><path d="M 83.5 41.75 A 20.875 20.875 0 0 1 41.75 41.75000000000001 L 62.62500000000001 41.75Z" fill="#a7c5bd"></path><path d="M 41.75 41.75 A 20.875 20.875 0 0 1 41.75 -2.3732127374387348e-15 L 41.75 20.875Z" fill="#a7c5bd"></path><path d="M 41.75 83.5 A 20.875 20.875 0 0 1 41.75 41.75 L 41.75 62.62500000000001Z" fill="#e5ddcb"></path></g><g style="transform: translate(0px, 167px) rotate(90deg); transform-origin: 41.75px 41.75px 0px; background-color: rgb(0, 0, 0);"><path d="M 0 0 L 83.5 0 L 83.5 83.5 L 0 83.5Z" fill="#66a8a5"></path><path d="M 41.75 -2.3732127374387348e-15 L 41.75 41.75 L 20.875000000000004 41.75 L 20.875 20.875 L 0 20.875000000000004 L -2.3732127374387348e-15 2.3732127374387348e-15Z" fill="#e5ddcb"></path><path d="M 0 41.75 L 41.75 41.75 L 41.75 62.62500000000001 L 20.875 62.62500000000001 L 20.875 83.5 L 0 83.5Z" fill="#a7c5bd"></path><path d="M 83.5 -2.3732127374387348e-15 L 83.5 41.75 L 62.62500000000001 41.75 L 62.62500000000001 20.875 L 41.75 20.875000000000004 L 41.75 2.3732127374387348e-15Z" fill="#a7c5bd"></path><path d="M 83.5 41.75 L 83.5 83.5 L 62.62500000000001 83.5 L 62.62500000000001 62.62500000000001 L 41.75 62.62500000000001 L 41.75 41.75Z" fill="#a7c5bd"></path></g><g style="transform: translate(0px, 250.5px) rotate(0deg); transform-origin: 41.75px 41.75px 0px; background-color: rgb(0, 0, 0);"><path d="M 0 0 L 83.5 0 L 83.5 83.5 L 0 83.5Z" fill="#66a8a5"></path><path d="M 9.492850949754939e-15 83.50000000000001 L -9.492850949754939e-15 9.492850949754939e-15 L 41.74999999999999 0 L 41.75 41.75 L 83.5 41.74999999999999 L 83.50000000000001 83.5Z" fill="#eb7b59"></path><path d="M 41.75 41.75 L 2.3732127374387348e-15 41.75 L 0 20.875000000000004 L 20.875 20.875 L 20.875 0 L 41.75 -2.3732127374387348e-15Z" fill="#eb7b59"></path></g><g style="transform: translate(83.5px) rotate(180deg); transform-origin: 41.75px 41.75px 0px; background-color: rgb(0, 0, 0);"><path d="M 0 0 L 83.5 0 L 83.5 83.5 L 0 83.5Z" fill="#66a8a5"></path><path d="M -2.3732127374387348e-15 2.3732127374387348e-15 L 41.75 20.875 L 2.3732127374387348e-15 41.75Z" fill="#a7c5bd"></path><path d="M 41.75000000000001 83.5 L 0 62.62500000000001 L 41.75 41.75Z" fill="#a7c5bd"></path><path d="M 41.75 2.3732127374387348e-15 L 83.5 20.875 L 41.75 41.75Z" fill="#a7c5bd"></path><path d="M 41.75 83.5 L 62.62500000000001 41.75 L 83.5 83.5Z" fill="#eb7b59"></path></g><g style="transform: translate(83.5px, 83.5px) rotate(180deg); transform-origin: 41.75px 41.75px 0px; background-color: rgb(0, 0, 0);"><path d="M 0 0 L 83.5 0 L 83.5 83.5 L 0 83.5Z" fill="#66a8a5"></path><path d="M 9.492850949754939e-15 83.50000000000001 L 83.50000000000001 83.5 L 41.75 41.75 L 83.5 -9.492850949754939e-15 L -9.492850949754939e-15 9.492850949754939e-15Z" fill="#eb7b59"></path><path d="M 0 27.833333333333332 L 13.916666666666666 27.833333333333332 L 27.833333333333332 55.666666666666664 L 13.916666666666666 55.666666666666664Z" fill="#e5ddcb"></path></g><g style="transform: translate(83.5px, 167px) rotate(180deg); transform-origin: 41.75px 41.75px 0px; background-color: rgb(0, 0, 0);"><path d="M 0 0 L 83.5 0 L 83.5 83.5 L 0 83.5Z" fill="#66a8a5"></path><path d="M 83.5 -4.7464254748774695e-15 L 83.5 41.75 A 41.75 41.75 0 1 1 41.75 0 L 83.5 -4.7464254748774695e-15Z" fill="#a7c5bd"></path><path d="M 0 0 L 13.916666666666666 0 L 27.833333333333332 13.916666666666666 L 27.833333333333332 27.833333333333332 L 13.916666666666666 27.833333333333332 L 0 13.916666666666666Z" fill="#e5ddcb"></path></g><g style="transform: translate(83.5px, 250.5px) rotate(360deg); transform-origin: 41.75px 41.75px 0px; background-color: rgb(0, 0, 0);"><path d="M 0 0 L 83.5 0 L 83.5 83.5 L 0 83.5Z" fill="#66a8a5"></path><path d="M 83.5 -4.7464254748774695e-15 L 83.5 41.75 L 0 41.75000000000001 L -4.7464254748774695e-15 4.7464254748774695e-15Z" fill="#eb7b59"></path><path d="M 83.5 83.5 L 69.58333333333333 83.5 A 13.916666666666666 13.916666666666666 0 1 1 83.5 69.58333333333333 L 83.5 83.5Z" fill="#e5ddcb"></path></g><g style="transform: translate(167px) rotate(180deg); transform-origin: 41.75px 41.75px 0px; background-color: rgb(0, 0, 0);"><path d="M 0 0 L 83.5 0 L 83.5 83.5 L 0 83.5Z" fill="#66a8a5"></path><path d="M 0 0 L 20.875 0 A 20.875 20.875 0 0 1 20.875 41.75 L 0 41.75Z" fill="#e5ddcb"></path><path d="M 83.5 41.75 L 83.5 62.62500000000001 A 20.875 20.875 0 0 1 41.75 62.62500000000001 L 41.75 41.75Z" fill="#e5ddcb"></path><path d="M 41.75 41.75 L 2.3732127374387348e-15 83.5 L -2.3732127374387348e-15 41.75Z" fill="#a7c5bd"></path><path d="M 83.5 -2.3732127374387348e-15 L 41.75 41.75 L 41.75 2.3732127374387348e-15Z" fill="#a7c5bd"></path></g><g style="transform: translate(167px, 83.5px) rotate(360deg); transform-origin: 41.75px 41.75px 0px; background-color: rgb(0, 0, 0);"><path d="M 0 0 L 83.5 0 L 83.5 83.5 L 0 83.5Z" fill="#66a8a5"></path><path d="M 83.5 41.75 A 41.75 41.75 0 1 0 83.5 41.75835Z" fill="#e5ddcb"></path><path d="M 27.833333333333332 27.833333333333332 L 55.666666666666664 27.833333333333332 L 41.75 55.666666666666664 L 27.833333333333332 55.666666666666664Z" fill="#e5ddcb"></path></g><g style="transform: translate(167px, 167px) rotate(180deg); transform-origin: 41.75px 41.75px 0px; background-color: rgb(0, 0, 0);"><path d="M 0 0 L 83.5 0 L 83.5 83.5 L 0 83.5Z" fill="#66a8a5"></path><path d="M 9.492850949754939e-15 83.50000000000001 L 83.5 -9.492850949754939e-15 L 83.50000000000001 83.5Z" fill="#eb7b59"></path><path d="M 83.5 62.62500000000001 A 20.875 20.875 0 1 0 83.5 62.629175Z" fill="#eb7b59"></path></g><g style="transform: translate(167px, 250.5px) rotate(360deg); transform-origin: 41.75px 41.75px 0px; background-color: rgb(0, 0, 0);"><path d="M 0 0 L 83.5 0 L 83.5 83.5 L 0 83.5Z" fill="#66a8a5"></path><path d="M 83.5 -4.7464254748774695e-15 L 83.5 41.75 A 41.75 41.75 0 1 1 41.75 0 L 83.5 -4.7464254748774695e-15Z" fill="#eb7b59"></path><path d="M 55.666666666666664 27.833333333333332 L 27.833333333333332 27.833333333333332 L 41.75 41.75 L 27.833333333333332 55.666666666666664 L 55.666666666666664 55.666666666666664Z" fill="#e5ddcb"></path></g><g style="transform: translate(250.5px) rotate(270deg); transform-origin: 41.75px 41.75px 0px; background-color: rgb(0, 0, 0);"><path d="M 0 0 L 83.5 0 L 83.5 83.5 L 0 83.5Z" fill="#66a8a5"></path><path d="M 4.7464254748774695e-15 41.75000000000001 L 0 20.875000000000007 L 41.75000000000001 41.75Z" fill="#e5ddcb"></path><path d="M 4.7464254748774695e-15 83.5 L 0 62.62500000000001 L 41.75000000000001 83.5Z" fill="#a7c5bd"></path><path d="M 41.75000000000001 41.75000000000001 L 41.75 20.875000000000007 L 83.5 41.75Z" fill="#eb7b59"></path><path d="M 41.75000000000001 83.5 L 41.75 62.62500000000001 L 83.5 83.5Z" fill="#e5ddcb"></path></g><g style="transform: translate(250.5px, 83.5px) rotate(0deg); transform-origin: 41.75px 41.75px 0px; background-color: rgb(0, 0, 0);"><path d="M 0 0 L 83.5 0 L 83.5 83.5 L 0 83.5Z" fill="#66a8a5"></path><path d="M 0 0 L 83.5 0 L 83.5 41.75 L 41.75 41.75 L 41.75 83.5 L 0 83.5Z" fill="#a7c5bd"></path><path d="M 83.5 83.5 L 4.7464254748774695e-15 83.5 L 0 41.75000000000001 L 41.75 41.75 L 41.75 0 L 83.5 -4.7464254748774695e-15Z" fill="#e5ddcb"></path></g><g style="transform: translate(250.5px, 167px) rotate(90deg); transform-origin: 41.75px 41.75px 0px; background-color: rgb(0, 0, 0);"><path d="M 0 0 L 83.5 0 L 83.5 83.5 L 0 83.5Z" fill="#66a8a5"></path><path d="M 0 0 L 41.75 41.75 L 0 41.75Z" fill="#e5ddcb"></path><path d="M 41.75 83.5 L -2.3732127374387348e-15 41.75 L 41.75 41.75Z" fill="#eb7b59"></path><path d="M 41.75 0 L 83.5 41.75 L 41.75 41.75Z" fill="#e5ddcb"></path><path d="M 83.5 83.5 L 41.75 41.75 L 83.5 41.75Z" fill="#eb7b59"></path></g><g style="transform: translate(250.5px, 250.5px) rotate(90deg); transform-origin: 41.75px 41.75px 0px; background-color: rgb(0, 0, 0);"><path d="M 0 0 L 83.5 0 L 83.5 83.5 L 0 83.5Z" fill="#66a8a5"></path><path d="M 41.75 41.75 L 83.5 41.75 L 83.5 62.62500000000001 L 62.62500000000001 83.5 L 41.75 62.62500000000001Z" fill="#e5ddcb"></path><path d="M 41.75 -2.3732127374387348e-15 A 20.875 20.875 0 0 1 -2.3732127374387348e-15 4.7464254748774695e-15 L 20.875 0Z" fill="#a7c5bd"></path><path d="M 83.5 41.75 L 41.75 41.75 L 41.75 20.875000000000004 L 62.62500000000001 0 L 83.5 20.875Z" fill="#e5ddcb"></path><path d="M 4.7464254748774695e-15 83.5 A 20.875 20.875 0 0 1 41.75000000000001 83.5 L 20.875000000000007 83.5Z" fill="#a7c5bd"></path></g><g style="transform: translate(334px) rotate(90deg); transform-origin: 41.75px 41.75px 0px; background-color: rgb(0, 0, 0);"><path d="M 0 0 L 83.5 0 L 83.5 83.5 L 0 83.5Z" fill="#66a8a5"></path><path d="M 41.75 0 L 83.5 0 L 83.5 41.75 L 41.75 83.5 L 0 83.5 L 0 41.75Z" fill="#e5ddcb"></path><path d="M 55.66666666666668 55.66666666666666 L 41.75 41.75 L 27.83333333333334 55.66666666666668 L 27.833333333333332 41.75 L 41.75 27.833333333333332 L 55.666666666666664 41.75Z" fill="#a7c5bd"></path></g><g style="transform: translate(334px, 83.5px) rotate(90deg); transform-origin: 41.75px 41.75px 0px; background-color: rgb(0, 0, 0);"><path d="M 0 0 L 83.5 0 L 83.5 83.5 L 0 83.5Z" fill="#66a8a5"></path><path d="M 9.492850949754939e-15 83.50000000000001 L 0 41.750000000000014 A 41.75 41.75 0 0 1 83.5 41.74999999999999 L 83.50000000000001 83.5Z" fill="#a7c5bd"></path><path d="M 55.666666666666664 27.833333333333332 L 55.666666666666664 41.75 A 13.916666666666666 13.916666666666666 0 0 1 27.833333333333332 41.75 L 27.833333333333332 27.833333333333332Z" fill="#e5ddcb"></path></g><g style="transform: translate(334px, 167px) rotate(90deg); transform-origin: 41.75px 41.75px 0px; background-color: rgb(0, 0, 0);"><path d="M 0 0 L 83.5 0 L 83.5 83.5 L 0 83.5Z" fill="#66a8a5"></path><path d="M 20.875 0 L 41.75 20.875 L 20.875 41.75 L 0 20.875Z" fill="#eb7b59"></path><path d="M 62.62500000000001 41.75 L 83.5 62.62500000000001 L 62.62500000000001 83.5 L 41.75 62.62500000000001Z" fill="#eb7b59"></path><path d="M 41.75 41.75 L 41.75 62.62500000000001 A 20.875 20.875 0 0 1 0 62.62500000000001 L -2.3732127374387348e-15 41.75Z" fill="#a7c5bd"></path><path d="M 41.75000000000001 41.75000000000001 L 41.75 20.875000000000007 A 20.875 20.875 0 0 1 83.5 20.874999999999996 L 83.5 41.75Z" fill="#a7c5bd"></path></g><g style="transform: translate(334px, 250.5px) rotate(90deg); transform-origin: 41.75px 41.75px 0px; background-color: rgb(0, 0, 0);"><path d="M 0 0 L 83.5 0 L 83.5 83.5 L 0 83.5Z" fill="#66a8a5"></path><path d="M 0 41.750000000000014 A 41.75 41.75 0 1 1 41.75000000000002 83.5 L 41.75 41.75Z" fill="#a7c5bd"></path><path d="M 0 41.75 A 41.75 41.75 0 0 1 41.75 83.5 L 0 83.5Z" fill="#a7c5bd"></path></g><g id="two-52" transform="matrix(1 0 0 1 0 0)" opacity="1"></g></svg>